<svg width="32" height="32" viewBox="0 0 32 32" fill="none" xmlns="http://www.w3.org/2000/svg">
<path d="M30 14H28.6499L25.1777 6.18762C25.0204 5.83425 24.764 5.53403 24.4397 5.32326C24.1153 5.1125 23.7368 5.00022 23.35 5H8.64987C8.26308 5.00028 7.88464 5.1126 7.56032 5.32338C7.23601 5.53417 6.97969 5.83439 6.82237 6.18775L3.35 14H2C1.73478 14 1.48043 14.1054 1.29289 14.2929C1.10536 14.4804 1 14.7348 1 15C1 15.2652 1.10536 15.5196 1.29289 15.7071C1.48043 15.8946 1.73478 16 2 16H3V26C3.0006 26.5303 3.2115 27.0386 3.58644 27.4136C3.96139 27.7885 4.46975 27.9994 5 28H8C8.53025 27.9994 9.03861 27.7885 9.41356 27.4136C9.7885 27.0386 9.9994 26.5303 10 26V24H22V26C22.0006 26.5303 22.2115 27.0386 22.5864 27.4136C22.9614 27.7885 23.4697 27.9994 24 28H27C27.5303 27.9994 28.0386 27.7885 28.4136 27.4136C28.7885 27.0386 28.9994 26.5303 29 26V16H30C30.2652 16 30.5196 15.8946 30.7071 15.7071C30.8946 15.5196 31 15.2652 31 15C31 14.7348 30.8946 14.4804 30.7071 14.2929C30.5196 14.1054 30.2652 14 30 14ZM10 20H8C7.73478 20 7.48043 19.8946 7.29289 19.7071C7.10536 19.5196 7 19.2652 7 19C7 18.7348 7.10536 18.4804 7.29289 18.2929C7.48043 18.1054 7.73478 18 8 18H10C10.2652 18 10.5196 18.1054 10.7071 18.2929C10.8946 18.4804 11 18.7348 11 19C11 19.2652 10.8946 19.5196 10.7071 19.7071C10.5196 19.8946 10.2652 20 10 20ZM24 20H22C21.7348 20 21.4804 19.8946 21.2929 19.7071C21.1054 19.5196 21 19.2652 21 19C21 18.7348 21.1054 18.4804 21.2929 18.2929C21.4804 18.1054 21.7348 18 22 18H24C24.2652 18 24.5196 18.1054 24.7071 18.2929C24.8946 18.4804 25 18.7348 25 19C25 19.2652 24.8946 19.5196 24.7071 19.7071C24.5196 19.8946 24.2652 20 24 20Z" fill="#16A34A"/>
</svg>
