<svg width="24" height="24" viewBox="0 0 24 24" fill="none" xmlns="http://www.w3.org/2000/svg">
<path fill-rule="evenodd" clip-rule="evenodd" d="M4.5 13H10.5C11.1 13 11.5 12.6 11.5 12V5C11.5 4.4 11.1 4 10.5 4H4.5C3.9 4 3.5 4.4 3.5 5V12C3.5 12.6 3.9 13 4.5 13ZM13.5 20H19.5C20.1 20 20.5 19.6 20.5 19V12C20.5 11.4 20.1 11 19.5 11H13.5C12.9 11 12.5 11.4 12.5 12V19C12.5 19.6 12.9 20 13.5 20ZM10.5 20H4.5C3.9 20 3.5 19.6 3.5 19V15C3.5 14.4 3.9 14 4.5 14H10.5C11.1 14 11.5 14.4 11.5 15V19C11.5 19.6 11.1 20 10.5 20ZM13.5 10H19.5C20.1 10 20.5 9.6 20.5 9V5C20.5 4.4 20.1 4 19.5 4H13.5C12.9 4 12.5 4.4 12.5 5V9C12.5 9.6 12.9 10 13.5 10Z" fill="#DDF0F8"/>
</svg>
