<svg width="24" height="24" viewBox="0 0 24 24" fill="none" xmlns="http://www.w3.org/2000/svg">
<path d="M19.6424 7.05494L14.9344 2.43956C14.6059 2.21978 14.2774 2 13.8394 2H4.97081C3.87592 2 3 2.87912 3 3.97802V20.0219C3 21.1208 3.87592 22 4.97081 22H18.1095C19.2045 22 19.9709 21.1208 19.9709 20.0219V7.93406C20.0804 7.6044 19.8613 7.27473 19.6424 7.05494ZM14.9344 4.63736L17.3431 7.05494H15.3723C15.1533 7.05494 14.9344 6.83516 14.9344 6.72527V4.63736ZM18.1095 20.3516H4.97081C4.75183 20.3516 4.53285 20.1319 4.53285 19.9121V3.97802C4.53285 3.75824 4.75183 3.53846 4.97081 3.53846H13.4015V6.61538C13.4015 7.71429 14.2774 8.5934 15.3723 8.5934H18.5475V20.0219C18.438 20.1319 18.3285 20.3516 18.1095 20.3516Z" fill="#DDF0F8"/>
<path d="M6.3941 12.4397C6.3941 12.8792 6.72257 13.2089 7.16053 13.2089H13.9489C14.3868 13.2089 14.7153 12.8792 14.7153 12.4397C14.7153 12.0001 14.3868 11.6705 13.9489 11.6705H7.16053C6.72257 11.5606 6.3941 12.0001 6.3941 12.4397ZM7.16053 10.0221H11.6496C12.0875 10.0221 12.416 9.69244 12.416 9.25287C12.416 8.81331 12.0875 8.48364 11.6496 8.48364H7.16053C6.72257 8.48364 6.28461 8.81331 6.28461 9.25287C6.28461 9.69244 6.72257 10.0221 7.16053 10.0221ZM15.9197 14.7474H7.16053C6.72257 14.7474 6.3941 15.0771 6.3941 15.5166C6.3941 15.9562 6.72257 16.2858 7.16053 16.2858H15.9197C16.3576 16.2858 16.6861 15.9562 16.6861 15.5166C16.6861 15.0771 16.3576 14.7474 15.9197 14.7474Z" fill="#DDF0F8"/>
</svg>
