<svg width="24" height="24" viewBox="0 0 24 24" fill="none" xmlns="http://www.w3.org/2000/svg">
<path d="M6.23542 10.1784C6.86622 9.81899 7.40691 9.54942 7.9476 9.19001C8.21795 9.10016 8.39818 9.01031 8.66852 9.01031C9.1191 9.10016 9.38944 9.36972 9.47956 9.81899C9.56967 10.2683 9.38944 10.7175 9.02899 10.8972C8.30806 11.2567 7.67725 11.616 7.04645 12.0653C6.59587 12.3349 6.05518 12.6044 5.60461 12.874C5.06391 13.2334 4.43311 13.0537 4.16276 12.4248C3.44185 11.1668 2.81104 9.90884 2.09011 8.65089C1.90989 8.20163 2 7.6625 2.36046 7.39294C2.72092 7.12339 3.26161 7.03353 3.62208 7.39294C3.71219 7.4828 3.8023 7.57265 3.89242 7.75235C4.07265 8.11177 4.25288 8.47118 4.52323 8.92046C4.61334 8.8306 4.61334 8.74074 4.61334 8.65089C5.96507 5.50602 8.30806 3.6191 11.7324 3.07997C16.5085 2.451 20.8341 5.59587 21.8253 10.2683C22.8166 15.2102 19.4823 19.9724 14.526 20.871C10.8313 21.4999 7.04645 19.7927 5.24415 16.558C5.06391 16.1986 4.9738 15.8392 5.24415 15.4798C5.42438 15.1204 5.78484 15.0305 6.14529 15.0305C6.50576 15.0305 6.7761 15.3001 6.95633 15.5696C7.49703 16.558 8.30806 17.2769 9.20922 17.9058C13.3545 20.6014 19.0318 18.1754 19.8428 13.3233C20.5637 9.45957 17.8603 5.77558 13.9853 5.1466C10.651 4.60749 7.3168 6.76397 6.32553 9.9987C6.32553 9.9987 6.32553 10.0886 6.23542 10.1784Z" fill="#DDF0F8"/>
<path d="M13.9854 9.7293C13.9854 10.2684 13.9854 10.8075 13.9854 11.4366C13.9854 11.5264 14.0755 11.706 14.0755 11.7959C14.8865 12.6046 15.7877 13.5032 16.5987 14.3119C17.1394 14.8509 16.9592 15.7495 16.2383 16.019C15.8778 16.1089 15.5173 16.1089 15.247 15.8393C14.2557 14.8509 13.1744 13.7727 12.1831 12.7843C12.0028 12.6046 11.9127 12.3351 11.9127 12.0655C11.9127 10.7177 11.9127 9.45974 11.9127 8.11193C11.9127 7.48296 12.3633 7.12354 12.904 7.03369C13.4447 7.03369 13.8953 7.48296 13.8953 8.02208C13.8953 8.02208 13.8953 8.02208 13.8953 8.11193C13.9854 8.65106 13.9854 9.19017 13.9854 9.7293Z" fill="#DDF0F8"/>
</svg>
