<svg width="24" height="24" viewBox="0 0 24 24" fill="none" xmlns="http://www.w3.org/2000/svg">
<path d="M13.1595 12.4527C12.7178 12.4527 12.3865 12.4527 11.9448 12.4527C11.5031 12.4527 10.951 12.4527 10.5092 12.4527C9.73622 12.4527 8.96321 12.4527 8.30062 12.4527C7.0859 12.4527 5.76074 12.4527 4.54602 12.4527C4.32516 12.4527 3.99387 12.4527 3.77301 12.4527C3.33129 12.4527 3.11043 12.2306 3 12.0086C3 11.7866 3.11043 11.4535 3.33129 11.2315C3.99387 10.8984 4.65645 10.4544 5.42946 10.1213C6.64418 9.45522 7.96934 8.67811 9.18407 8.01202C10.2883 7.45694 11.2822 6.79085 12.3865 6.23577C13.4908 5.68069 14.4847 5.0146 15.589 4.45952C16.362 4.01546 17.135 3.68241 17.908 3.23835C18.5706 2.9053 19.2332 2.57225 19.8958 2.12819C20.227 2.01717 20.4479 1.90616 20.7792 2.12819C21 2.35022 21 2.57225 21 2.9053C20.7792 3.79343 20.6687 4.68155 20.4479 5.56968C20.227 6.4578 20.1166 7.23491 19.8958 8.12304C19.6749 9.23319 19.454 10.3433 19.2332 11.3425C19.0123 12.3416 18.7914 13.4518 18.5706 14.4509C18.3498 15.6721 18.0184 17.0042 17.7976 18.2255C17.5767 19.3356 17.3558 20.4458 17.135 21.445C17.0246 21.667 16.8037 21.889 16.4725 22C16.1411 22 15.9202 21.889 15.8098 21.5559C15.4786 20.5568 15.2577 19.6686 14.9264 18.6695C14.4847 17.3374 14.1534 16.0051 13.7117 14.673C13.4908 14.0069 13.2699 13.3407 13.0491 12.5636C13.1595 12.5636 13.1595 12.5636 13.1595 12.4527Z" fill="#134359"/>
</svg>
