<svg width="110" height="80" viewBox="0 0 110 80" fill="none" xmlns="http://www.w3.org/2000/svg">
<ellipse cx="55" cy="69" rx="46" ry="11" fill="#DDE9FC"/>
<g clip-path="url(#clip0_1589_36660)">
<path d="M19 29H91V62C91 66.9706 86.9706 71 82 71H28C23.0294 71 19 66.9706 19 62V29Z" fill="white"/>
<path d="M91.0459 22.491V29.3937H19.0369V22.491C19.0369 20.7741 19.7205 19.1276 20.9375 17.9136C22.1544 16.6996 23.8049 16.0176 25.526 16.0176H84.5568C86.2778 16.0176 87.9284 16.6996 89.1453 17.9136C90.3622 19.1276 91.0459 20.7741 91.0459 22.491Z" fill="#DDF0F8"/>
<path d="M91.1284 29.4788H18.9539V22.4935C18.956 20.7554 19.6491 19.0891 20.8811 17.8601C22.1131 16.6311 23.7834 15.9397 25.5257 15.9375H84.5566C86.2989 15.9397 87.9692 16.6311 89.2012 17.8601C90.4331 19.0891 91.1262 20.7554 91.1284 22.4935V29.4788ZM19.1194 29.3136H90.9629V22.4935C90.9611 20.799 90.2856 19.1745 89.0846 17.9764C87.8835 16.7783 86.2551 16.1044 84.5566 16.1026H25.5257C23.8272 16.1044 22.1987 16.7783 20.9977 17.9764C19.7967 19.1745 19.1211 20.799 19.1194 22.4935V29.3136Z" fill="#6196F0"/>
<path d="M84.4741 72.0013H25.4433C23.4376 71.9991 21.5146 71.2033 20.0964 69.7885C18.6781 68.3736 17.8804 66.4554 17.8782 64.4545V21.7499C17.8804 19.7491 18.6781 17.8308 20.0964 16.4159C21.5146 15.0011 23.4376 14.2053 25.4433 14.2031H84.4741C86.4798 14.2053 88.4028 15.0011 89.821 16.4159C91.2393 17.8308 92.037 19.7491 92.0392 21.7499V64.4545C92.037 66.4554 91.2393 68.3736 89.821 69.7885C88.4028 71.2033 86.4798 71.9991 84.4741 72.0013ZM25.4433 16.3499C24.0082 16.3517 22.6323 16.9211 21.6176 17.9335C20.6028 18.9458 20.0319 20.3183 20.0302 21.7499V64.4545C20.0319 65.8861 20.6028 67.2586 21.6176 68.2709C22.6323 69.2833 24.0082 69.8527 25.4433 69.8545H84.4741C85.9092 69.8527 87.285 69.2833 88.2998 68.2709C89.3146 67.2586 89.8855 65.8861 89.8872 64.4545V21.7499C89.8855 20.3183 89.3146 18.9458 88.2998 17.9335C87.285 16.9211 85.9092 16.3517 84.4741 16.3499H25.4433Z" fill="#296683"/>
<path d="M18.9541 53.018C18.8544 53.0181 18.7552 53.0042 18.6594 52.9768C13.978 51.6557 11.0166 48.4041 10.0962 43.6002C9.76883 41.8023 9.70914 39.966 9.91904 38.1507H1.076C0.790625 38.1507 0.516941 38.0376 0.315153 37.8363C0.113364 37.635 0 37.362 0 37.0773C0 36.7926 0.113364 36.5196 0.315153 36.3183C0.516941 36.117 0.790625 36.0039 1.076 36.0039H12.5147L12.225 37.3101C11.8631 39.2754 11.8631 41.2899 12.225 43.2551C13.0063 47.2316 15.3702 49.8061 19.2521 50.9092C19.5015 50.9803 19.7169 51.1389 19.8584 51.3559C19.9999 51.5728 20.0581 51.8334 20.0222 52.0898C19.9863 52.3461 19.8588 52.5809 19.6631 52.7508C19.4675 52.9208 19.2169 53.0145 18.9574 53.0147L18.9541 53.018Z" fill="#296683"/>
<path d="M91.0461 53.0174C90.7866 53.0172 90.536 52.9235 90.3403 52.7535C90.1447 52.5836 90.0172 52.3488 89.9813 52.0924C89.9454 51.8361 90.0036 51.5755 90.1451 51.3586C90.2866 51.1416 90.5019 50.983 90.7514 50.9119C94.6333 49.8088 97.0054 47.2294 97.7785 43.2661C98.1411 41.2981 98.1411 39.2808 97.7785 37.3128L97.4904 36H108.924C109.21 36 109.483 36.1131 109.685 36.3144C109.887 36.5157 110 36.7887 110 37.0734C110 37.3581 109.887 37.6311 109.685 37.8324C109.483 38.0337 109.21 38.1468 108.924 38.1468H100.081C100.291 39.9621 100.231 41.7984 99.904 43.5963C98.9836 48.4002 96.0221 51.6435 91.3407 52.9728C91.2451 53.0014 91.1459 53.0164 91.0461 53.0174Z" fill="#296683"/>
<path d="M90.9629 27.5547H18.9539V29.7015H90.9629V27.5547Z" fill="#296683"/>
<path d="M44.1986 46.1542C45.5243 46.1542 46.5989 45.0822 46.5989 43.7597C46.5989 42.4373 45.5243 41.3652 44.1986 41.3652C42.873 41.3652 41.7983 42.4373 41.7983 43.7597C41.7983 45.0822 42.873 46.1542 44.1986 46.1542Z" fill="#296683"/>
<path d="M26.9 24.0272C27.7228 24.0272 28.3898 23.3618 28.3898 22.5409C28.3898 21.7201 27.7228 21.0547 26.9 21.0547C26.0772 21.0547 25.4102 21.7201 25.4102 22.5409C25.4102 23.3618 26.0772 24.0272 26.9 24.0272Z" fill="#296683"/>
<path d="M32.8592 24.0272C33.682 24.0272 34.3491 23.3618 34.3491 22.5409C34.3491 21.7201 33.682 21.0547 32.8592 21.0547C32.0364 21.0547 31.3694 21.7201 31.3694 22.5409C31.3694 23.3618 32.0364 24.0272 32.8592 24.0272Z" fill="#296683"/>
<path d="M38.1566 24.0272C38.9794 24.0272 39.6464 23.3618 39.6464 22.5409C39.6464 21.7201 38.9794 21.0547 38.1566 21.0547C37.3338 21.0547 36.6667 21.7201 36.6667 22.5409C36.6667 23.3618 37.3338 24.0272 38.1566 24.0272Z" fill="#296683"/>
<path d="M66.5463 46.1542C67.8719 46.1542 68.9466 45.0822 68.9466 43.7597C68.9466 42.4373 67.8719 41.3652 66.5463 41.3652C65.2206 41.3652 64.146 42.4373 64.146 43.7597C64.146 45.0822 65.2206 46.1542 66.5463 46.1542Z" fill="#296683"/>
<path d="M60.1732 56.1459C60.0041 56.1461 59.8374 56.1065 59.6866 56.0301C59.5359 55.9538 59.4054 55.8429 59.3058 55.7066C56.0911 51.3338 49.9347 52.0026 49.8701 52.0092C49.5916 52.0342 49.3142 51.9501 49.0967 51.7746C48.8793 51.5991 48.7389 51.346 48.7053 51.069C48.6717 50.792 48.7476 50.5128 48.9168 50.2906C49.0861 50.0685 49.3354 49.9208 49.6119 49.8789C49.9148 49.8426 57.071 49.0383 61.034 54.4383C61.1511 54.5978 61.2217 54.7865 61.2382 54.9834C61.2546 55.1804 61.2162 55.3781 61.1272 55.5547C61.0381 55.7313 60.902 55.88 60.7336 55.9843C60.5653 56.0886 60.3714 56.1445 60.1732 56.1459Z" fill="#296683"/>
<path d="M12.8293 19.1556H12.7664C12.4825 19.1394 12.2166 19.0116 12.0271 18.8002C11.8375 18.5887 11.7396 18.311 11.755 18.0277C11.8961 16.5964 12.3233 15.2077 13.0114 13.9439C14.0626 11.982 16.2129 9.41083 20.5037 8.2945C20.7798 8.22267 21.0733 8.26321 21.3194 8.40722C21.5656 8.55123 21.7444 8.7869 21.8164 9.06238C21.8884 9.33787 21.8477 9.6306 21.7034 9.87619C21.559 10.1218 21.3228 10.3001 21.0466 10.3719C14.3589 12.1125 13.9186 17.9022 13.9037 18.1483C13.886 18.4208 13.7653 18.6764 13.5658 18.8634C13.3663 19.0505 13.1031 19.1549 12.8293 19.1556Z" fill="#DCE8FB"/>
<path d="M6.62139 19.2382H6.56842C6.28353 19.2245 6.01574 19.0985 5.82391 18.888C5.63208 18.6774 5.5319 18.3995 5.5454 18.1153C5.75144 15.7365 6.38448 13.4141 7.41432 11.2588C8.99024 7.91802 12.2331 3.53362 18.7288 1.61472C18.8651 1.57158 19.0087 1.55597 19.1511 1.56881C19.2935 1.58164 19.4319 1.62266 19.5582 1.68947C19.6846 1.75627 19.7963 1.84753 19.8868 1.9579C19.9774 2.06828 20.045 2.19555 20.0857 2.33229C20.1264 2.46902 20.1394 2.61248 20.1239 2.75428C20.1084 2.89608 20.0647 3.03337 19.9954 3.15814C19.9261 3.2829 19.8326 3.39263 19.7203 3.48092C19.608 3.5692 19.4791 3.63428 19.3413 3.67233C8.36285 6.91563 7.7007 18.1054 7.69408 18.2177C7.6809 18.4926 7.56214 18.752 7.36243 18.942C7.16272 19.132 6.89737 19.2381 6.62139 19.2382Z" fill="#DCE8FB"/>
<path d="M107.683 16.099C107.681 18.5702 107.069 21.0029 105.9 23.1819C104.732 25.3609 103.043 27.219 100.983 28.5919C98.9236 29.9648 96.5565 30.8102 94.0913 31.0533C91.6261 31.2963 89.1389 30.9296 86.8497 29.9854L78.3691 32.6953L80.1404 24.5144C78.8207 22.5678 77.9771 20.3396 77.6772 18.0088C77.3774 15.6779 77.6297 13.3094 78.4138 11.0934C79.198 8.87749 80.4922 6.87589 82.1925 5.24941C83.8927 3.62293 85.9517 2.4169 88.2039 1.72819C90.4561 1.03949 92.8389 0.887316 95.1608 1.28388C97.4826 1.68045 99.6789 2.61471 101.573 4.01162C103.468 5.40853 105.007 7.22915 106.068 9.32725C107.129 11.4253 107.682 13.7424 107.683 16.0924V16.099Z" fill="white"/>
<path d="M76.9238 34.2936L78.993 24.7355C76.9402 21.5079 76.107 17.6563 76.6428 13.8714C77.1786 10.0865 79.0484 6.61574 81.917 4.08146C84.7855 1.54718 88.4652 0.11511 92.2962 0.0420061C96.1272 -0.0310983 99.8591 1.25955 102.823 3.68254C105.786 6.10553 107.788 9.50239 108.468 13.2641C109.149 17.0258 108.464 20.9063 106.536 24.2099C104.609 27.5135 101.565 30.0241 97.9496 31.2915C94.3346 32.559 90.3853 32.5004 86.8097 31.1263L76.9238 34.2936ZM92.6184 2.14631C90.0786 2.14649 87.5867 2.83645 85.4101 4.14216C83.2334 5.44788 81.4542 7.32009 80.2632 9.55797C79.0723 11.7958 78.5145 14.3149 78.6497 16.8451C78.7849 19.3752 79.608 21.8208 81.0308 23.9197L81.289 24.2995L79.8141 31.1131L86.8974 28.8441L87.2616 28.996C89.1726 29.7855 91.2352 30.1424 93.301 30.041C95.3669 29.9397 97.3845 29.3827 99.2086 28.4101C101.033 27.4374 102.618 26.0734 103.85 24.4162C105.082 22.759 105.931 20.8499 106.335 18.8262C106.738 16.8026 106.687 14.7149 106.185 12.7133C105.683 10.7117 104.742 8.84617 103.43 7.25093C102.118 5.65568 100.468 4.37046 98.5987 3.48778C96.7292 2.60511 94.6867 2.14695 92.6184 2.14631Z" fill="#296683"/>
<path d="M91.508 16.1233C91.9226 15.5542 92.3995 15.033 92.93 14.5693C93.2957 14.2501 93.633 13.8998 93.9381 13.5224C94.1499 13.2456 94.2629 12.9061 94.2592 12.558C94.2665 12.321 94.2143 12.086 94.1073 11.8743C94.0004 11.6626 93.842 11.4809 93.6467 11.3458C93.2373 11.0486 92.6938 10.9 92.0162 10.9C91.4133 10.8885 90.8171 11.027 90.2814 11.3029C89.7733 11.5748 89.3362 11.9617 89.0051 12.4324L86.4922 10.9611C87.0768 10.0787 87.8919 9.37241 88.8494 8.91832C89.8427 8.43392 91.0158 8.19226 92.3688 8.19336C93.9613 8.19336 95.2387 8.5319 96.201 9.20896C96.6622 9.51713 97.037 9.93759 97.2899 10.4306C97.5428 10.9236 97.6654 11.4728 97.6461 12.0262C97.6557 12.5356 97.5599 13.0416 97.3647 13.5124C97.1959 13.91 96.9627 14.2771 96.6744 14.5991C96.4051 14.8963 96.0553 15.2387 95.6249 15.6262C95.2165 15.9764 94.8414 16.3633 94.5042 16.7822C94.2636 17.1089 94.1395 17.5065 94.1516 17.9117H91.0197C90.993 17.2795 91.1636 16.6546 91.508 16.1233ZM91.1769 22.5636C90.9931 22.393 90.8473 22.1858 90.749 21.9553C90.6506 21.7249 90.6018 21.4764 90.6058 21.226C90.5994 20.9786 90.6462 20.7327 90.743 20.5049C90.8398 20.277 90.9843 20.0724 91.167 19.9049C91.566 19.5638 92.0742 19.3762 92.5997 19.3762C93.1252 19.3762 93.6334 19.5638 94.0324 19.9049C94.2151 20.0724 94.3596 20.277 94.4564 20.5049C94.5532 20.7327 94.6 20.9786 94.5936 21.226C94.5976 21.4764 94.5488 21.7249 94.4505 21.9553C94.3521 22.1858 94.2063 22.393 94.0225 22.5636C93.6329 22.9163 93.1258 23.1116 92.5997 23.1116C92.0737 23.1116 91.5665 22.9163 91.1769 22.5636Z" fill="#DDF0F8"/>
</g>
<defs>
<clipPath id="clip0_1589_36660">
<rect width="110" height="72" fill="white"/>
</clipPath>
</defs>
</svg>
