<svg width="24" height="24" viewBox="0 0 24 24" fill="none" xmlns="http://www.w3.org/2000/svg">
<path d="M11.67 21.9999C11.3091 21.9056 10.9482 21.8112 10.5873 21.6226C9.77534 21.2452 9.32424 20.4905 9.05359 19.6415V19.5471C11.0384 19.5471 12.9331 19.5471 14.9179 19.5471C14.8277 19.9245 14.7375 20.3018 14.557 20.5848C14.0156 21.3396 13.3841 21.8112 12.4819 21.9999H12.3917C12.121 21.9999 11.8504 21.9999 11.67 21.9999Z" fill="#DDF0F8"/>
<path d="M11.9406 18.6981C9.77537 18.6981 7.61011 18.6981 5.44483 18.6981C4.72307 18.6981 4.18175 18.2264 4.00132 17.566C3.91109 17 4.09154 16.5283 4.54263 16.0566C4.99373 15.6792 5.35461 15.2076 5.71549 14.6416C6.25681 13.7924 6.43724 12.7547 6.43724 11.717C6.43724 10.8679 6.43724 10.1132 6.43724 9.26416C6.52747 6.5283 8.42208 4.16981 11.0384 3.69811C11.1286 3.69811 11.2189 3.69811 11.2189 3.50943C11.2189 3.22641 11.2189 3.03773 11.2189 2.75472C11.2189 2.37736 11.5798 2 11.9406 2C12.3917 2 12.7526 2.37736 12.7526 2.84906C12.7526 3.13208 12.7526 3.41509 12.7526 3.60378C12.7526 3.69811 12.7526 3.79246 12.9331 3.79246C15.369 4.26416 17.1734 6.15095 17.5342 8.69811C17.5342 8.98113 17.5342 9.26416 17.5342 9.64151C17.5342 10.4906 17.5342 11.434 17.5342 12.283C17.6245 13.7924 18.256 15.0189 19.3387 16.0566C19.6093 16.3397 19.88 16.717 19.9702 17.0943C20.0604 18.0378 19.4289 18.6981 18.5267 18.6981C17.7147 18.6981 16.8125 18.6981 16.0006 18.6981C14.6473 18.6981 13.294 18.6981 11.9406 18.6981Z" fill="#DDF0F8"/>
</svg>
