<svg width="24" height="24" viewBox="0 0 24 24" fill="none" xmlns="http://www.w3.org/2000/svg">
<path d="M21.2156 6.36565C21.1744 6.27189 21.1151 6.1872 21.0411 6.11641C20.9671 6.04562 20.8799 5.99014 20.7844 5.95315C20.6889 5.91731 20.5869 5.90212 20.485 5.90859C20.3832 5.91505 20.284 5.94302 20.1938 5.99065C20.1172 6.01987 20.0494 6.06829 19.9969 6.13127L16.3406 9.77815L14.5781 9.4219L14.2219 7.65939L17.8688 4.00314C17.9317 3.95066 17.9802 3.88287 18.0094 3.80627C18.057 3.71606 18.085 3.61678 18.0914 3.51498C18.0979 3.41317 18.0827 3.31115 18.0469 3.21564C18.0099 3.12015 17.9544 3.03291 17.8836 2.9589C17.8128 2.8849 17.7281 2.8256 17.6344 2.78439C16.3902 2.25811 15.0167 2.11726 13.6916 2.38006C12.3665 2.64286 11.1507 3.29722 10.2016 4.2585C9.25242 5.21978 8.61353 6.44375 8.36756 7.77208C8.12159 9.10041 8.27985 10.472 8.82188 11.7094L3.16875 16.5938C3.15938 16.6031 3.14063 16.6125 3.13125 16.6313C2.85233 16.9091 2.63101 17.2393 2.48 17.6029C2.32899 17.9665 2.25125 18.3563 2.25125 18.75C2.25125 19.1437 2.32899 19.5335 2.48 19.8971C2.63101 20.2607 2.85233 20.5909 3.13125 20.8688C3.40911 21.1477 3.7393 21.369 4.10289 21.52C4.46647 21.671 4.8563 21.7488 5.25 21.7488C5.6437 21.7488 6.03353 21.671 6.39712 21.52C6.76071 21.369 7.0909 21.1477 7.36875 20.8688C7.3875 20.8594 7.39688 20.8406 7.40625 20.8313L12.2906 15.1781C13.528 15.7202 14.8996 15.8784 16.2279 15.6325C17.5563 15.3865 18.7802 14.7476 19.7415 13.7984C20.7028 12.8493 21.3572 11.6335 21.62 10.3084C21.8828 8.9833 21.7419 7.60983 21.2156 6.36565ZM18.7125 12.7125C17.9078 13.5125 16.8663 14.0313 15.743 14.1918C14.6197 14.3523 13.4746 14.1458 12.4781 13.6031C12.3261 13.5166 12.1488 13.4851 11.9763 13.5142C11.8038 13.5432 11.6466 13.6309 11.5313 13.7625L6.29063 19.8281C6.00529 20.0867 5.63146 20.2256 5.24653 20.2161C4.8616 20.2066 4.49506 20.0495 4.22279 19.7772C3.95052 19.505 3.79338 19.1384 3.7839 18.7535C3.77443 18.3686 3.91334 17.9947 4.17188 17.7094L10.2375 12.4688C10.3676 12.3568 10.4554 12.2035 10.4861 12.0346C10.5168 11.8656 10.4886 11.6913 10.4063 11.5406C9.92778 10.6715 9.70492 9.68473 9.76339 8.69431C9.82186 7.70389 10.1593 6.75021 10.7367 5.9434C11.3141 5.13658 12.108 4.50955 13.0266 4.13471C13.9452 3.75987 14.9511 3.6525 15.9281 3.82502L12.8813 6.88127C12.7941 6.96822 12.7297 7.07527 12.6938 7.19299C12.6578 7.31071 12.6513 7.43547 12.675 7.55627L13.2 10.2094C13.2332 10.3533 13.3061 10.485 13.4106 10.5895C13.515 10.6939 13.6467 10.7669 13.7906 10.8L16.4438 11.325C16.5645 11.3487 16.6893 11.3422 16.807 11.3063C16.9247 11.2703 17.0318 11.2059 17.1188 11.1188L20.175 8.07189C20.3246 8.90602 20.2697 9.76398 20.015 10.5722C19.7602 11.3805 19.3133 12.1149 18.7125 12.7125Z" fill="#DDF0F8"/>
</svg>
